<svg width="20" height="18" viewBox="0 0 20 18" fill="none" xmlns="http://www.w3.org/2000/svg">
<path d="M6.42345 5.54266L9.04418 0.350391C9.09451 0.245938 9.17316 0.157716 9.27118 0.0957691C9.36919 0.0338223 9.48262 0.000639921 9.59857 0C9.81816 0 10.0378 0.116397 10.1566 0.350391L12.7773 5.54266L18.6547 6.37784C18.8012 6.40087 18.9353 6.47373 19.0343 6.58412C19.1334 6.69452 19.1913 6.83569 19.1983 6.98382C19.2067 7.08244 19.1927 7.18168 19.1574 7.27414C19.1221 7.3666 19.0663 7.44989 18.9943 7.51781L14.7668 11.5449L15.7628 17.2208C15.8564 17.7523 15.3308 18.1687 14.8676 17.9311L9.59857 15.224L4.3319 17.9311C4.27681 17.9597 4.21776 17.98 4.15671 17.9911C3.74632 18.0631 3.35513 17.6863 3.43673 17.2208L4.4327 11.5449L0.206408 7.51781C0.140704 7.45565 0.088479 7.38064 0.0529741 7.29746C0.0174692 7.21427 -0.000557502 7.12467 1.31361e-05 7.03422C7.555e-05 6.90635 0.0353659 6.78096 0.102011 6.67183C0.149288 6.59272 0.213726 6.52523 0.290571 6.47434C0.367416 6.42346 0.454706 6.39048 0.545999 6.37784L6.42345 5.54266V5.54266ZM9.59857 13.832C9.69543 13.8316 9.79095 13.8547 9.87696 13.8992L14.3 16.172L13.4673 11.4237C13.4476 11.3145 13.4551 11.2021 13.4889 11.0965C13.5228 10.9908 13.5821 10.8951 13.6617 10.8177L17.15 7.49381L12.2877 6.80263C12.187 6.78742 12.0915 6.74804 12.0094 6.68785C11.9273 6.62766 11.8609 6.54846 11.8161 6.45704L9.59977 2.06755L9.59857 2.07115V13.8308V13.832Z" fill="#363636"/>
</svg>
