<svg width="20" height="18" viewBox="0 0 20 18" fill="none" xmlns="http://www.w3.org/2000/svg">
<path d="M3.43732 17.2201C3.34373 17.7528 3.86929 18.1692 4.33245 17.9316L9.60005 15.2246L14.8665 17.9316C15.3296 18.1692 15.8552 17.7528 15.7616 17.2213L14.7657 11.5457L18.9917 7.5188C19.3877 7.14203 19.1837 6.45328 18.6534 6.37889L12.7762 5.54375L10.1556 0.351746C10.1057 0.2465 10.0269 0.15758 9.92848 0.0953161C9.83003 0.033052 9.71594 0 9.59945 0C9.48297 0 9.36887 0.033052 9.27043 0.0953161C9.17198 0.15758 9.09322 0.2465 9.0433 0.351746L6.4227 5.54495L0.545543 6.38009C0.0163829 6.45448 -0.188801 7.14323 0.205968 7.52L4.43325 11.5469L3.43732 17.2225V17.2201ZM9.32287 13.8999L4.90001 16.1725L5.73275 11.4245C5.75226 11.3152 5.74462 11.2028 5.71052 11.0971C5.67642 10.9915 5.61689 10.8958 5.53716 10.8185L2.05023 7.4948L6.91226 6.80365C7.01294 6.78845 7.10843 6.74907 7.19056 6.68888C7.27268 6.6287 7.339 6.5495 7.38382 6.45808L9.59765 2.06882L11.8139 6.45808C11.8587 6.5495 11.925 6.6287 12.0072 6.68888C12.0893 6.74907 12.1848 6.78845 12.2854 6.80365L17.1475 7.4936L13.6605 10.8173C13.5806 10.8947 13.521 10.9906 13.4869 11.0965C13.4528 11.2024 13.4452 11.315 13.465 11.4245L14.2977 16.1725L9.87483 13.8999C9.78931 13.8558 9.69448 13.8328 9.59825 13.8328C9.50203 13.8328 9.4072 13.8558 9.32167 13.8999H9.32287Z" fill="#363636"/>
</svg>
