<svg width="18" height="18" viewBox="0 0 18 18" fill="none" xmlns="http://www.w3.org/2000/svg">
<path d="M7.69765 15.3953C9.40555 15.395 11.0642 14.8232 12.4096 13.7711L16.6394 18.001L18 16.6404L13.7701 12.4105C14.8228 11.0651 15.3949 9.40599 15.3953 7.69765C15.3953 3.45336 11.9419 0 7.69765 0C3.45336 0 0 3.45336 0 7.69765C0 11.9419 3.45336 15.3953 7.69765 15.3953ZM7.69765 1.92441C10.8816 1.92441 13.4709 4.51371 13.4709 7.69765C13.4709 10.8816 10.8816 13.4709 7.69765 13.4709C4.51371 13.4709 1.92441 10.8816 1.92441 7.69765C1.92441 4.51371 4.51371 1.92441 7.69765 1.92441Z" fill="white"/>
</svg>
